<?xml version="1.0" encoding="UTF-8"?>
<svg id="Layer_1" data-name="Layer 1" xmlns="http://www.w3.org/2000/svg" viewBox="0 0 512 512">
  <defs>
    <style>
      .cls-1 {
        fill: #f8f9fb;
      }

      .cls-2 {
        fill: #394253;
      }
    </style>
  </defs>
  <path class="cls-1" d="M452,512H60c-33.14,0-60-26.86-60-60V60C0,26.86,26.86,0,60,0H452c33.14,0,60,26.86,60,60V452c0,33.14-26.86,60-60,60Z"/>
  <g>
    <path class="cls-2" d="M280.09,24.95c19.26,2.93,34.52,7.85,52.72,17.21,41.8,21.43,73.03,61.48,84.3,108.09,3.17,13.35,3.99,22.25,3.87,41.57-.35,38.65-13.5,73.31-39.33,103.64-15.38,18.27-32.76,31.15-58.59,43.56-9.98,4.8-22.54,11.59-27.83,15.11-11.51,7.61-25.95,20.96-33.23,30.8-2.94,3.86-5.52,7.03-5.87,7.03s-2.94-3.16-5.87-7.03c-6.93-9.37-21.72-23.19-32.41-30.45-4.7-3.04-17.14-9.84-27.71-14.99-22.19-10.77-36.16-20.14-50.14-34.08-33.23-32.79-50.14-74.71-48.96-121.21C93.29,94.86,165.38,24.01,254.97,23.31c7.4,0,18.67,.7,25.13,1.64Zm-17.73,421.12c13.74,3.75,20.31,21.08,12.45,32.91-4.58,7.03-9.75,9.72-18.67,9.72s-13.97-2.58-18.79-9.49c-7.63-11.24-1.76-28.11,11.27-32.67,5.64-1.99,7.98-2.11,13.74-.47Z"/>
    <path class="cls-1" d="M235.01,44.62c-39.33,16.16-67.16,73.89-67.98,140.76-.82,64.88,24.66,124.13,61.64,143.11,5.05,2.58,11.04,5.15,13.15,5.62l3.76,.82V188.43c0-138.77-.12-146.5-2-146.5-1.17,0-5.05,1.29-8.57,2.69Z"/>
    <path class="cls-1" d="M266.71,188.31v146.62l3.87-.82c6.34-1.41,19.02-8.31,26.42-14.52,3.87-3.16,10.21-10.19,14.21-15.46,46.61-61.72,45.09-177.65-3.17-235.97-10.45-12.65-26.3-23.54-37.45-25.76l-3.87-.82V188.31Z"/>
    <path class="cls-1" d="M177,64.3c-19.96,13.12-40.16,36.19-50.61,57.85-10.8,22.37-14.91,40.4-14.91,64.99-.12,32.44,7.51,58.09,25.71,85.84,7.51,11.36,26.89,30.45,39.22,38.65,5.52,3.63,10.45,6.68,10.8,6.68,.47,0-2.11-3.86-5.64-8.55-7.87-10.31-19.26-32.67-24.19-47.55-15.26-46.26-15.26-101.77,.23-148.26,4.81-14.52,14.79-34.55,22.66-45.55,3.64-5.04,6.46-9.37,6.22-9.6s-4.46,2.23-9.51,5.5Z"/>
    <path class="cls-1" d="M325.41,58.79c0,.23,2.94,4.68,6.58,9.72,16.56,22.95,28.41,55.86,32.76,91.11,2,16.04,1.41,49.42-1.06,65.46-5.4,33.96-17.73,64.99-34.4,86.66-6.11,7.96-4.93,7.85,7.63-.7,11.39-7.73,30.88-27.17,37.92-37.83,18.2-27.4,26.07-53.52,25.95-86.07,0-24.83-4.23-43.1-15.03-65.11-9.75-19.91-25.95-39.58-43.21-52.46-9.04-6.68-17.14-11.83-17.14-10.77Z"/>
  </g>
</svg>